<?xml version="1.0" standalone="no"?>
<!DOCTYPE svg PUBLIC "-//W3C//DTD SVG 20010904//EN"
 "http://www.w3.org/TR/2001/REC-SVG-20010904/DTD/svg10.dtd">
<svg version="1.0" xmlns="http://www.w3.org/2000/svg"
 width="520.000000pt" height="520.000000pt" viewBox="0 0 520.000000 520.000000"
 preserveAspectRatio="xMidYMid meet">
<metadata>
Created by potrace 1.14, written by Peter Selinger 2001-2017
</metadata>
<g transform="translate(0.000000,520.000000) scale(0.100000,-0.100000)"
fill="#000000" stroke="none">
<path d="M2943 4116 c-24 -8 -43 -12 -43 -9 0 3 -6 0 -13 -6 -8 -6 -17 -8 -20
-4 -4 3 -7 1 -7 -6 0 -7 -4 -9 -10 -6 -5 3 -10 1 -10 -6 0 -7 -3 -10 -6 -6 -4
3 -13 -1 -21 -9 -8 -8 -19 -12 -24 -9 -5 4 -9 -1 -9 -10 0 -9 -4 -14 -9 -11
-5 3 -16 -5 -25 -18 -8 -14 -25 -27 -36 -31 -11 -4 -18 -10 -15 -14 2 -5 -11
-21 -29 -36 -20 -16 -32 -34 -29 -42 3 -8 0 -13 -8 -11 -8 2 -13 -3 -11 -9 2
-14 -8 -16 -32 -7 -9 3 -14 9 -11 14 2 4 -7 13 -20 20 -14 7 -25 19 -25 26 0
7 -9 16 -20 19 -11 4 -18 11 -15 16 4 5 -1 9 -9 9 -9 0 -16 5 -16 10 0 6 -7
10 -15 10 -8 0 -15 5 -15 10 0 6 -7 10 -15 10 -8 0 -15 5 -15 10 0 6 -9 10
-19 10 -11 0 -21 5 -23 10 -2 6 -14 12 -28 15 -14 2 -45 11 -70 18 -62 18
-130 21 -181 7 -24 -7 -48 -13 -54 -15 -44 -10 -65 -19 -65 -28 0 -6 -3 -8 -6
-4 -6 5 -15 0 -49 -30 -7 -7 -19 -13 -25 -13 -6 0 -9 -4 -6 -8 3 -5 -6 -15
-19 -22 -13 -7 -22 -16 -20 -20 3 -4 -4 -15 -15 -25 -11 -10 -17 -22 -14 -26
3 -5 1 -9 -4 -9 -8 0 -26 -34 -37 -72 -1 -5 -3 -9 -5 -10 -1 -2 -3 -10 -5 -18
-2 -8 -6 -28 -10 -45 -13 -58 -17 -160 -7 -200 11 -51 -1 -66 -41 -52 -43 14
-184 0 -229 -24 -10 -5 -18 -7 -18 -3 0 4 -12 -3 -27 -17 -14 -13 -22 -17 -18
-9 5 9 -1 7 -15 -5 -67 -56 -90 -79 -90 -91 0 -6 -7 -15 -16 -18 -8 -3 -12
-10 -9 -16 3 -5 2 -10 -3 -10 -9 0 -25 -37 -23 -52 1 -5 -3 -8 -7 -8 -5 0 -9
-6 -9 -12 0 -7 -4 -26 -8 -43 -22 -94 -15 -193 21 -305 14 -45 35 -91 44 -100
3 -3 14 -21 24 -40 11 -19 25 -39 33 -43 7 -4 13 -15 13 -22 0 -8 5 -15 10
-15 6 0 10 -7 10 -16 0 -8 4 -13 9 -9 5 3 12 -4 16 -15 3 -10 28 -34 56 -51
27 -18 49 -36 49 -41 0 -5 5 -6 10 -3 6 3 10 1 10 -5 0 -6 4 -9 9 -6 5 3 14
-1 21 -9 7 -8 19 -15 26 -15 8 0 14 -5 14 -11 0 -6 6 -9 14 -6 7 3 17 2 22 -3
13 -11 141 -39 194 -42 50 -3 47 4 35 -93 -4 -27 -9 -53 -11 -56 -6 -11 -128
-1 -132 11 -3 7 -9 7 -20 -2 -13 -11 -14 -11 -7 1 6 11 5 12 -6 5 -20 -12 -38
-14 -45 -3 -3 6 -12 5 -21 -3 -9 -7 -18 -12 -20 -10 -10 7 -43 0 -38 -8 3 -5
1 -11 -4 -11 -6 -1 -15 -2 -20 -3 -5 0 -13 -5 -18 -10 -5 -5 -2 -6 6 -1 9 5
12 4 7 -3 -4 -7 -14 -12 -22 -12 -8 0 -13 -4 -10 -9 4 -5 3 -11 -1 -13 -13 -5
-44 -79 -38 -89 4 -5 2 -9 -4 -9 -5 0 -8 -9 -6 -20 2 -11 0 -20 -4 -20 -5 0
-11 -9 -14 -19 -4 -15 -11 -18 -28 -14 -21 5 -43 27 -44 43 0 3 -4 11 -9 19
-7 10 -5 12 5 7 10 -6 10 -4 -1 6 -8 7 -26 34 -39 61 -13 26 -28 47 -32 47 -5
0 -9 7 -9 15 0 9 -7 18 -15 21 -8 4 -12 10 -9 15 7 12 -15 41 -27 33 -5 -2
-21 2 -36 9 -15 8 -36 13 -45 12 -10 -2 -18 1 -18 7 0 7 -5 7 -13 -1 -9 -7
-17 -7 -24 0 -7 7 -15 6 -24 -4 -8 -7 -20 -12 -27 -9 -6 2 -12 -1 -12 -7 0 -6
-7 -11 -16 -11 -8 0 -12 -4 -9 -10 3 -5 -1 -10 -10 -10 -9 0 -13 -4 -10 -10 3
-6 1 -10 -4 -10 -6 0 -11 -7 -11 -16 0 -9 -5 -12 -12 -8 -8 5 -7 0 2 -11 10
-13 11 -16 2 -11 -9 6 -12 3 -10 -10 2 -12 -2 -18 -10 -16 -8 1 -11 -2 -8 -7
4 -5 2 -12 -4 -16 -5 -3 -10 -11 -10 -16 0 -6 5 -7 10 -4 6 4 1 -10 -10 -29
-11 -20 -18 -36 -15 -36 2 0 -2 -12 -10 -27 -8 -15 -12 -30 -9 -35 3 -4 -1 -8
-8 -8 -11 0 -10 -2 0 -9 11 -7 11 -9 -2 -14 -8 -3 -18 -22 -21 -41 -4 -19 -10
-34 -14 -33 -4 1 -19 -10 -34 -25 -15 -16 -25 -28 -22 -28 4 0 0 -7 -7 -15
-41 -46 -45 -55 -36 -95 3 -14 14 -61 23 -105 17 -74 22 -84 68 -128 68 -65
90 -74 170 -75 77 0 95 -9 171 -83 64 -63 179 -121 226 -115 67 8 110 18 116
27 12 20 41 7 85 -38 63 -66 68 -69 139 -91 54 -16 69 -17 123 -7 86 16 104
28 118 78 16 63 22 71 66 86 49 18 93 9 93 -20 0 -11 6 -30 14 -42 8 -12 17
-46 20 -75 8 -71 34 -106 93 -124 77 -25 200 -10 283 33 33 17 80 17 80 -1 0
-4 19 -20 43 -36 41 -27 46 -28 172 -28 72 0 148 3 169 7 55 10 126 44 157 73
l27 25 63 -19 c148 -46 441 14 537 110 38 37 44 39 111 43 81 4 132 28 222
105 l52 45 81 1 c128 0 213 53 261 159 40 91 65 160 69 191 5 35 -39 138 -54
129 -5 -3 -12 0 -16 6 -4 8 -3 9 4 5 7 -4 12 -2 12 3 0 6 -6 11 -12 11 -7 0
-22 12 -32 27 -11 14 -14 23 -8 19 7 -4 12 -3 12 2 0 6 -7 13 -16 16 -8 3 -13
10 -10 15 3 5 -1 14 -9 21 -8 7 -15 19 -15 26 0 8 -4 14 -9 14 -5 0 -12 7 -15
16 -6 15 -4 15 11 3 10 -7 7 -1 -6 14 -14 15 -21 27 -16 27 5 0 -1 9 -13 20
-12 12 -22 29 -22 40 0 10 -8 26 -17 36 -10 10 -18 22 -18 27 0 6 -8 11 -18
13 -22 3 -48 35 -39 48 3 5 -2 7 -11 3 -9 -3 -22 -1 -29 6 -7 7 -22 12 -33 12
-11 0 -25 3 -32 8 -6 4 -14 3 -18 -3 -5 -8 -10 -8 -20 0 -9 8 -15 8 -20 0 -3
-6 -11 -8 -16 -4 -13 8 -71 -30 -89 -58 -14 -23 -18 -35 -24 -76 -1 -13 -8
-27 -13 -30 -6 -4 -13 -41 -16 -82 -5 -65 -10 -102 -17 -120 -1 -3 -2 -8 -1
-12 0 -5 -3 -8 -7 -8 -4 0 -8 -8 -9 -17 -2 -37 -15 -78 -24 -81 -6 -3 -6 -9 1
-17 8 -9 7 -14 -4 -18 -9 -4 -12 -14 -9 -26 3 -13 1 -21 -6 -21 -7 0 -10 -4
-6 -9 3 -5 -1 -16 -9 -24 -8 -8 -12 -18 -8 -22 4 -5 0 -4 -8 1 -15 9 -31 13
-63 16 -10 1 -15 8 -12 15 3 10 0 11 -13 4 -10 -5 -24 -6 -31 -2 -17 11 -53 2
-45 -11 4 -6 -4 -4 -17 3 -23 12 -23 11 -9 -6 8 -10 10 -16 3 -12 -6 4 -15 2
-18 -3 -5 -7 -12 -5 -20 7 -10 14 -11 21 -2 32 9 11 9 13 1 8 -7 -4 -14 0 -18
8 -3 8 0 17 6 21 7 5 8 2 3 -7 -5 -8 -4 -11 1 -6 10 10 12 33 16 174 2 59 -1
99 -6 96 -5 -4 -6 -1 -2 6 11 18 12 101 1 105 -5 3 -4 5 4 5 11 1 11 4 1 16
-7 8 -9 15 -4 15 5 0 2 5 -6 10 -8 5 -15 16 -15 24 0 9 -3 15 -6 13 -3 -1 -13
6 -23 16 -10 9 -22 14 -28 11 -6 -4 -8 -2 -4 4 3 5 1 12 -5 14 -6 2 -13 15
-15 28 -2 14 -6 48 -10 75 -13 92 -18 86 78 106 48 10 98 24 110 31 13 7 26
11 31 10 4 -1 7 3 7 9 0 5 5 7 10 4 6 -3 10 -1 10 5 0 6 4 9 8 6 5 -3 14 4 22
14 8 10 17 17 22 14 4 -3 11 2 14 10 3 9 10 14 14 11 5 -3 11 4 15 15 4 11 11
18 16 15 5 -4 9 -2 9 2 0 9 23 42 50 72 8 9 21 29 29 44 8 15 18 27 23 27 5 0
6 5 3 10 -3 6 -1 10 5 10 6 0 9 4 5 9 -3 5 -1 12 5 16 6 4 8 11 5 16 -4 5 -2
9 3 9 5 0 9 6 9 13 0 6 10 48 21 92 26 97 24 221 -3 310 -11 33 -18 63 -17 68
1 4 -3 7 -9 7 -5 0 -7 5 -4 10 3 6 1 10 -4 10 -6 0 -11 9 -11 20 0 11 -4 20
-10 20 -5 0 -10 5 -10 11 0 7 -12 23 -27 37 -16 13 -21 21 -13 17 8 -3 6 1 -4
9 -11 9 -23 16 -28 16 -4 0 -8 7 -8 16 0 8 -4 12 -10 9 -5 -3 -10 -2 -10 3 0
12 -76 53 -119 64 -20 5 -45 11 -56 14 -43 11 -108 11 -153 0 -77 -20 -76 -20
-84 69 -4 44 -13 103 -19 130 -7 28 -11 51 -10 53 1 1 -6 17 -16 35 -9 17 -16
35 -15 40 1 4 -3 7 -9 7 -5 0 -8 4 -5 8 3 5 -4 16 -15 25 -10 9 -19 23 -19 31
0 8 -9 18 -20 21 -11 3 -20 13 -20 21 0 8 -5 14 -10 14 -6 0 -22 11 -35 25
-14 13 -25 21 -25 18 0 -3 -8 1 -17 9 -51 44 -224 69 -300 44z"/>
</g>
</svg>
