<?xml version="1.0" standalone="no"?>
<!DOCTYPE svg PUBLIC "-//W3C//DTD SVG 20010904//EN"
 "http://www.w3.org/TR/2001/REC-SVG-20010904/DTD/svg10.dtd">
<svg version="1.0" xmlns="http://www.w3.org/2000/svg"
 width="64.000000pt" height="64.000000pt" viewBox="0 0 64.000000 64.000000"
 preserveAspectRatio="xMidYMid meet">
<metadata>
Created by potrace 1.10, written by Peter Selinger 2001-2011
</metadata>
<g transform="translate(0.000000,64.000000) scale(0.100000,-0.100000)"
fill="#000000" stroke="none">
<path d="M52 508 c-16 -16 -15 -43 2 -57 9 -8 89 -11 271 -9 233 3 259 5 269
20 8 13 8 23 0 35 -10 16 -36 18 -270 21 -194 2 -263 -1 -272 -10z m513 -28
c4 -7 -80 -10 -245 -10 -165 0 -249 3 -245 10 4 6 97 10 245 10 148 0 241 -4
245 -10z"/>
<path d="M52 348 c-16 -16 -15 -43 2 -57 9 -8 89 -11 271 -9 233 3 259 5 269
20 8 13 8 23 0 35 -10 16 -36 18 -270 21 -194 2 -263 -1 -272 -10z m513 -28
c4 -7 -80 -10 -245 -10 -165 0 -249 3 -245 10 4 6 97 10 245 10 148 0 241 -4
245 -10z"/>
<path d="M52 188 c-16 -16 -15 -43 2 -57 9 -8 89 -11 271 -9 233 3 259 5 269
20 8 13 8 23 0 35 -10 16 -36 18 -270 21 -194 2 -263 -1 -272 -10z m513 -28
c4 -7 -80 -10 -245 -10 -165 0 -249 3 -245 10 4 6 97 10 245 10 148 0 241 -4
245 -10z"/>
</g>
</svg>
